<svg xmlns="http://www.w3.org/2000/svg" width="43.215" height="43.215" viewBox="0 0 43.215 43.215">
  <g id="Icon_ionic-logo-instagram" data-name="Icon ionic-logo-instagram" transform="translate(-4.5 -4.5)">
    <path id="Path_3815" data-name="Path 3815" d="M35.111,7.1c2.386,0,5.648.945,7.358,2.645s2.645,4.973,2.645,7.358V35.111c0,2.386-.945,5.648-2.645,7.358s-4.973,2.645-7.358,2.645H17.1c-2.386,0-5.648-1.945-7.358-3.645A8.923,8.923,0,0,1,7.1,35.111V17.1c0-2.386.945-5.648,2.645-7.358S14.719,7.1,17.1,7.1H35.111m0-2.6H17.1A12.641,12.641,0,0,0,4.5,17.1V35.111a12.641,12.641,0,0,0,12.6,12.6H35.111a12.641,12.641,0,0,0,12.6-12.6V17.1a12.641,12.641,0,0,0-12.6-12.6Z" fill="#fff"/>
    <path id="Path_3816" data-name="Path 3816" d="M26.326,14.4a2.7,2.7,0,1,1,2.7-2.7A2.694,2.694,0,0,1,26.326,14.4Z" transform="translate(11.486 2.702)" fill="#fff"/>
    <path id="Path_3817" data-name="Path 3817" d="M22.054,14.851a7.2,7.2,0,1,1-7.2,7.2,7.209,7.209,0,0,1,7.2-7.2m0-3.6a10.8,10.8,0,1,0,10.8,10.8,10.806,10.806,0,0,0-10.8-10.8Z" transform="translate(4.054 4.054)" fill="#fff"/>
  </g>
</svg>
